<svg width="24" height="24" viewBox="0 0 24 24" fill="none" xmlns="http://www.w3.org/2000/svg">
<path fill-rule="evenodd" clip-rule="evenodd" d="M12.2901 7.39639C9.90393 7.27126 8.04188 8.92698 7.63127 11.5185C7.29123 13.6645 7.89411 16.2795 8.40978 16.4111C8.6285 16.467 9.15483 16.0644 9.53777 15.7033C9.60976 15.6354 9.71862 15.624 9.80304 15.6756C10.4 16.0406 11.0758 16.3149 11.8209 16.354C14.2705 16.4825 16.4414 14.5653 16.5697 12.1154C16.698 9.66557 14.7397 7.52485 12.2901 7.39639ZM8.29432 19.8377C8.20193 19.7723 8.07464 19.79 7.99722 19.8726C6.96234 20.9764 4.31384 21.7506 4.19252 20.2441C4.19252 19.0638 3.92741 18.0692 3.63552 16.974C3.27803 15.6328 2.88037 14.1409 2.88037 11.9725C2.88037 6.80174 7.12104 2.91309 12.149 2.91309C17.177 2.91309 21.1192 6.9916 21.1192 12.0227C21.1192 17.0538 17.0515 21.0319 12.1966 21.0319C10.4742 21.0319 9.63836 20.7893 8.29432 19.8377Z" fill="#B49764"/>
</svg>
